Coordinates
version=1
nRows=8
nColumns=40
inDegrees=yes

Units are S.I. units (second, meters, Newtons, ...)
If the header above contains a line with 'inDegrees', this indicates whether rotational values are in degrees (yes) or radians (no).

endheader
time	pelvis_tilt	pelvis_list	pelvis_rotation	pelvis_tx	pelvis_ty	pelvis_tz	hip_flexion_r	hip_adduction_r	hip_rotation_r	knee_angle_r	knee_angle_r_beta	ankle_angle_r	subtalar_angle_r	mtp_angle_r	hip_flexion_l	hip_adduction_l	hip_rotation_l	knee_angle_l	knee_angle_l_beta	ankle_angle_l	subtalar_angle_l	mtp_angle_l	lumbar_extension	lumbar_bending	lumbar_rotation	arm_flex_r	arm_add_r	arm_rot_r	elbow_flex_r	pro_sup_r	wrist_flex_r	wrist_dev_r	arm_flex_l	arm_add_l	arm_rot_l	elbow_flex_l	pro_sup_l	wrist_flex_l	wrist_dev_l
      4.94500000	    -29.91865677	      0.75833304	     -5.70202732	     -0.30301845	      0.67575864	     -0.89295122	     87.25732814	    -26.22496548	     -2.34489165	     91.75283914	      1.60138914	     29.40773689	      0.00000000	      0.00000000	     85.11619394	    -36.26996055	     -0.86922340	     93.00294582	      1.62320762	     32.98041037	      0.00000000	      0.00000000	    -22.52386270	      2.72681827	      6.00136745	    -44.95523832	    -50.72097803	     21.62987866	    105.40999685	     87.89383571	      0.00000000	      0.00000000	    -23.33754676	    -57.91030918	     38.66796538	    106.24676812	     87.82726377	      0.00000000	      0.00000000
      4.95000000	    -30.71440428	      0.63565262	     -5.61322028	     -0.30516741	      0.67076317	     -0.89326341	     88.55061296	    -26.32344743	     -2.30490858	     92.29288672	      1.61081475	     29.34206695	      0.00000000	      0.00000000	     86.80070029	    -36.25996746	     -0.22312947	     93.58656553	      1.63339370	     33.05340557	      0.00000000	      0.00000000	    -22.19196902	      2.85652103	      6.00903008	    -44.64213635	    -50.84286491	     22.23705394	    105.23232051	     87.89260651	      0.00000000	      0.00000000	    -23.19053554	    -58.08351276	     38.97658464	    106.31314404	     87.82899924	      0.00000000	      0.00000000
      4.95500000	    -31.34666522	      0.25319211	     -5.57663640	     -0.30693993	      0.66615630	     -0.89312660	     89.43768614	    -26.33235296	     -2.60963531	     92.82857358	      1.62016425	     29.31642859	      0.00000000	      0.00000000	     88.46413430	    -36.44852027	      0.64495448	     94.15474212	      1.64331026	     33.02045776	      0.00000000	      0.00000000	    -22.05934914	      3.21555004	      6.17644884	    -44.34566426	    -50.92767950	     22.63429594	    105.11231690	     87.88743584	      0.00000000	      0.00000000	    -23.03567657	    -58.12468490	     39.11123954	    106.31573803	     87.82986370	      0.00000000	      0.00000000
      4.96000000	    -31.72973131	      0.22898040	     -5.42719149	     -0.30825148	      0.66215136	     -0.89374436	     90.29657179	    -26.64773079	     -2.52331834	     93.35848329	      1.62941292	     29.23980143	      0.00000000	      0.00000000	     89.47465794	    -36.38946160	      0.94991938	     94.70242226	      1.65286908	     33.02427390	      0.00000000	      0.00000000	    -22.16255134	      3.26870016	      6.11605493	    -44.10440072	    -51.00959588	     22.84139756	    105.04227981	     87.88495329	      0.00000000	      0.00000000	    -22.82961889	    -58.14946919	     39.17430755	    106.31641499	     87.82938818	      0.00000000	      0.00000000
      4.96500000	    -32.21042619	      0.06770721	     -5.29962386	     -0.30950254	      0.65798640	     -0.89412219	     91.14585383	    -26.89111301	     -2.60251785	     93.87579951	      1.63844179	     29.22637003	      0.00000000	      0.00000000	     90.69829103	    -36.38675626	      1.44707103	     95.23248242	      1.66212037	     33.04212135	      0.00000000	      0.00000000	    -22.09334549	      3.46066419	      6.10182926	    -43.87472771	    -51.07799263	     23.04918895	    104.89997425	     87.88165732	      0.00000000	      0.00000000	    -22.65690612	    -58.21829240	     39.24260570	    106.35291459	     87.82505936	      0.00000000	      0.00000000
      4.97000000	    -32.35256330	      0.03263110	     -5.25117272	     -0.31037382	      0.65472165	     -0.89434562	     91.67712853	    -27.09445312	     -2.55589116	     94.33989692	      1.64654182	     29.31730942	      0.00000000	      0.00000000	     91.32475004	    -36.51312707	      1.59637092	     95.70134781	      1.67030362	     33.17081181	      0.00000000	      0.00000000	    -22.45066508	      3.45390242	      6.13905888	    -43.61467762	    -51.08336530	     22.98905625	    104.91334725	     87.87617515	      0.00000000	      0.00000000	    -22.41748838	    -58.24724574	     39.11193175	    106.36886064	     87.81675610	      0.00000000	      0.00000000
      4.97500000	    -32.59075617	     -0.00717605	     -5.13957768	     -0.31112822	      0.65119848	     -0.89448346	     92.32465794	    -27.36175544	     -2.49469804	     94.89614653	      1.65625020	     29.39925179	      0.00000000	      0.00000000	     92.11181950	    -36.54241042	      1.86095022	     96.21291243	      1.67923210	     33.28351691	      0.00000000	      0.00000000	    -22.65525726	      3.47811099	      6.13888918	    -43.47097084	    -51.05665357	     23.03278931	    104.83415127	     87.88071371	      0.00000000	      0.00000000	    -22.28429019	    -58.36596720	     39.05224588	    106.41081583	     87.81512003	      0.00000000	      0.00000000
      4.98000000	    -33.71917944	     -0.63062670	     -5.08210105	     -0.31377809	      0.64650888	     -0.89414456	     93.47831757	    -27.27529742	     -3.09277421	     95.20233980	      1.66159429	     29.27077993	      0.00000000	      0.00000000	     94.55417280	    -36.41358623	      3.32349787	     96.58278109	      1.68568753	     33.01130831	      0.00000000	      0.00000000	    -21.91263460	      4.11743081	      6.41248895	    -43.44478992	    -51.22934054	     23.13899449	    104.82462286	     87.88865100	      0.00000000	      0.00000000	    -22.34366042	    -58.57113251	     39.03804359	    106.78354589	     87.82435522	      0.00000000	      0.00000000
